# xmcd
#
# Track frame offsets: 
#        183
#        16395
#        36683
#        55258
#        76115
#        91405
#        112158
#        130005
#        149755
#        166698
#        185088
#
# Disc length: 2730 seconds
#
# Revision: 0
# Processed by: cddbd v1.5.2PL0 Copyright (c) Steve Scherf et al.
# Submitted via: ExactAudioCopy v0.99pb3
#
DISCID=990aa80b
DTITLE=Soy Cowboy - Soy Cowboy
DYEAR=1900
DGENRE=Thailand
TTITLE0=Lily Pads And Rock
TTITLE1=Postcards From Chieng Mai
TTITLE2=Paint It Black
TTITLE3=Down By The River
TTITLE4=Just The Way It Is
TTITLE5=Graceland
TTITLE6=Warm Bright Lights
TTITLE7=Wide Open Spaces
TTITLE8=Back At The Grace Hotel
TTITLE9=Old Cowhand From The Rio Grande
TTITLE10=Another World
EXTD=
EXTT0=
EXTT1=
EXTT2=
EXTT3=
EXTT4=
EXTT5=
EXTT6=
EXTT7=
EXTT8=
EXTT9=
EXTT10=
PLAYORDER=
